<svg xmlns="http://www.w3.org/2000/svg" width="100" height="100" viewBox="0 0 100 100" fill="none">
  <path d="M25 33.3333H62.5V25C62.5 21.5278 61.2847 18.5764 58.8542 16.1458C56.4236 13.7153 53.4722 12.5 50 12.5C46.5278 12.5 43.5764 13.7153 41.1458 16.1458C38.7153 18.5764 37.5 21.5278 37.5 25H29.1667C29.1667 19.2361 31.1986 14.3222 35.2625 10.2583C39.3264 6.19444 44.2389 4.16388 50 4.16666C55.7639 4.16666 60.6778 6.1986 64.7417 10.2625C68.8056 14.3264 70.8361 19.2389 70.8333 25V33.3333H75C77.2917 33.3333 79.2542 34.15 80.8875 35.7833C82.5208 37.4167 83.3361 39.3778 83.3333 41.6667V83.3333C83.3333 85.625 82.5167 87.5875 80.8833 89.2208C79.25 90.8542 77.2889 91.6694 75 91.6667H25C22.7083 91.6667 20.7458 90.85 19.1125 89.2167C17.4792 87.5833 16.6639 85.6222 16.6667 83.3333V41.6667C16.6667 39.375 17.4833 37.4125 19.1167 35.7792C20.75 34.1458 22.7111 33.3305 25 33.3333ZM25 83.3333H75V41.6667H25V83.3333ZM50 70.8333C52.2917 70.8333 54.2542 70.0167 55.8875 68.3833C57.5208 66.75 58.3361 64.7889 58.3333 62.5C58.3333 60.2083 57.5167 58.2458 55.8833 56.6125C54.25 54.9792 52.2889 54.1639 50 54.1667C47.7083 54.1667 45.7458 54.9833 44.1125 56.6167C42.4792 58.25 41.6639 60.2111 41.6667 62.5C41.6667 64.7917 42.4833 66.7542 44.1167 68.3875C45.75 70.0208 47.7111 70.8361 50 70.8333Z" fill="#83C8F9"/>
</svg>